<svg width="711" height="70" viewBox="0 0 711 70" fill="none" xmlns="http://www.w3.org/2000/svg">
<g clip-path="url(#clip0_718_520)">
<path d="M15 61.6248C15 65.7669 11.6421 69.1248 7.5 69.1248C3.35786 69.1248 0 65.7669 0 61.6248C0 57.4826 3.35786 54.1248 7.5 54.1248C11.6421 54.1248 15 57.4826 15 61.6248Z" fill="#DA87B1"/>
<path d="M107.001 64.0371V59.2223V0.963013H119.442C124.028 0.963013 127.781 1.42443 130.722 2.3573C133.663 3.29017 136.159 4.94527 138.2 7.31255C140.241 9.68986 141.712 12.9098 142.611 16.9923C143.511 21.0749 143.956 26.2408 143.956 32.5C143.956 38.7593 143.463 43.9553 142.466 48.098C141.48 52.2408 139.893 55.4607 137.726 57.7778C135.559 60.0849 133.024 61.7099 130.113 62.6428C127.201 63.5757 123.583 64.0371 119.249 64.0371H107.001ZM130.354 57.1058C132.986 55.6914 134.998 53.0433 136.391 49.1613C137.784 45.2794 138.481 39.7223 138.481 32.5C138.481 25.2778 137.794 19.7308 136.439 15.8388C135.075 11.9568 133.092 9.30869 130.499 7.89434C127.897 6.47999 124.211 5.77783 119.452 5.77783H112.109V59.2223H119.258C124.028 59.2223 127.723 58.5201 130.354 57.1058Z" fill="#DA87B1"/>
<path d="M107.001 64.0371V59.2223H14.5011V64.0371H107.001Z" fill="#DA87B1"/>
<path d="M158.177 64.0371V59.2223H168.674V5.77783H158.177V0.963013H184.084V5.77783H173.772V59.2223H184.084V64.0371H158.177V64.0371Z" fill="#DA87B1"/>
<path d="M201.914 64.0371V0.963013H233.587V5.67752H207.022V29.561H231.072V34.2755H207.022V59.3125H233.858V64.0271H201.914V64.0371Z" fill="#DA87B1"/>
<path d="M249.462 57.2963C245.999 52.1605 244.257 43.8951 244.257 32.5C244.257 21.1049 245.96 12.8395 249.365 7.7037C252.78 2.5679 258.323 0 265.995 0C271.006 0 276.269 1.02315 281.783 3.07947L280.487 7.9946C274.857 6.00849 270.019 5.0054 265.995 5.0054C260.171 5.0054 256.011 7.14197 253.506 11.4051C251 15.6782 249.743 22.6397 249.743 32.2994C249.743 41.9591 251.039 48.9907 253.641 53.3843C256.244 57.7778 260.171 59.9846 265.434 59.9846C268.588 59.9846 272.399 59.2122 276.859 57.6775V38.4182H266.363V33.7037H281.967V61.439C275.592 63.8164 270.078 65 265.434 65C258.256 65 252.935 62.4321 249.462 57.2963Z" fill="#DA87B1"/>
<path d="M290.887 31.8781C290.887 26.8727 291.196 22.5393 291.815 18.8781C292.435 15.2168 293.421 11.9167 294.785 8.95756C297.572 2.9892 302.776 0 310.39 0C319.058 0.0601852 324.756 4.27315 327.474 12.6188C329.08 17.4336 329.893 23.1011 329.893 29.6111C329.893 36.1312 329.583 41.3071 328.964 45.1589C328.345 49.0108 327.348 52.4815 325.994 55.561C323.15 61.8503 317.945 65 310.39 65C302.96 65 297.794 61.8603 294.882 55.561C292.222 49.8534 290.887 41.9491 290.887 31.8781ZM324.417 32.6404C324.417 29.1698 324.34 26.3812 324.185 24.2647C324.03 22.1481 323.672 19.8009 323.121 17.233C322.56 14.6651 321.805 12.5486 320.847 10.8735C319.89 9.20833 318.526 7.80401 316.765 6.68055C315.004 5.5571 312.876 4.99537 310.399 4.99537C307.923 4.99537 305.804 5.5571 304.034 6.68055C302.273 7.80401 300.909 9.1983 299.951 10.8735C298.994 12.5486 298.229 14.6651 297.678 17.233C296.807 21.2153 296.382 25.6289 296.382 30.4738C296.382 35.3187 296.556 39.2407 296.894 42.2199C297.233 45.2091 297.871 48.1381 298.8 51.027C300.716 56.9954 304.585 59.9846 310.409 59.9846C316.349 59.9846 320.257 56.9653 322.115 50.9367C323.701 45.8009 324.475 39.7022 324.417 32.6404Z" fill="#DA87B1"/>
<path d="M404.934 38.1374C401.587 38.328 399.42 38.4283 398.433 38.4283H390.82V64.0471H385.712V0.963013H399.362C406.918 0.963013 412.461 2.30715 415.982 5.00545C419.513 7.70375 421.274 12.4484 421.274 19.2593C421.274 23.8133 420.394 27.4746 418.623 30.2331C416.863 32.9916 414.028 35.2385 410.129 36.9738C414.338 45.2593 418.178 54.2771 421.642 64.0371H416.069C412.674 54.6683 408.959 46.0317 404.934 38.1374ZM399.178 5.77783H390.82V33.6034H398.25C403.948 33.6034 408.311 32.5301 411.348 30.3735C414.386 28.2269 415.895 24.5155 415.895 19.2493C415.895 13.9831 414.55 10.4221 411.851 8.55638C409.162 6.7107 404.934 5.77783 399.178 5.77783Z" fill="#DA87B1"/>
<path d="M434.092 64.0371V0.963013H465.765V5.67752H439.2V29.561H463.25V34.2755H439.2V59.3125H466.036V64.0271H434.092V64.0371Z" fill="#DA87B1"/>
<path d="M498.551 36.7832V64.0371H493.54V36.7832L475.604 0.963013H481.737L495.949 31.2963H496.132L510.344 0.963013H516.477L498.551 36.7832Z" fill="#DA87B1"/>
<path d="M526.964 64.0371V0.963013H558.637V5.67752H532.072V29.561H556.122V34.2755H532.072V59.3125H558.908V64.0271H526.964V64.0371Z" fill="#DA87B1"/>
<path d="M586.817 33.7539C581.274 32.3696 577.22 30.3534 574.647 27.6852C572.074 25.027 570.797 21.1551 570.797 16.0795C570.797 11.0039 572.48 7.06173 575.856 4.23302C579.233 1.41435 583.586 0 588.907 0C594.228 0 599.645 0.993055 605.159 2.9892L603.863 7.90432C598.726 5.97839 594.005 5.01543 589.7 5.01543C585.395 5.01543 582.096 5.95833 579.813 7.85417C577.52 9.75 576.379 12.4884 576.379 16.0895C576.379 19.6806 577.308 22.409 579.165 24.2747C581.022 26.1404 584.718 27.8256 590.261 29.3302C595.804 30.8349 599.809 32.831 602.286 35.2986C604.763 37.7662 606.001 41.7485 606.001 47.2353C606.001 52.7222 604.221 57.0555 600.661 60.2353C597.101 63.4151 592.506 65 586.866 65C582.657 65 577.327 64.0671 570.894 62.2114L572.103 57.2963C578.42 59.0918 583.489 59.9946 587.33 59.9946C591.171 59.9946 594.324 58.8912 596.801 56.6744C599.277 54.4576 600.516 51.3681 600.516 47.3858C600.516 43.4035 599.616 40.4846 597.826 38.6188C596.027 36.7531 592.36 35.1281 586.817 33.7539Z" fill="#DA87B1"/>
<path d="M605.159 2.9892L603.863 7.90432H711.001V2.9892H605.159Z" fill="#DA87B1"/>
</g>
<defs>
<clipPath id="clip0_718_520">
<rect width="711.001" height="70" fill="white"/>
</clipPath>
</defs>
</svg>
