<svg width="663" height="70" viewBox="0 0 663 70" fill="none" xmlns="http://www.w3.org/2000/svg">
<path d="M15 61.6248C15 65.7669 11.6421 69.1248 7.5 69.1248C3.35786 69.1248 0 65.7669 0 61.6248C0 57.4826 3.35786 54.1248 7.5 54.1248C11.6421 54.1248 15 57.4826 15 61.6248Z" fill="#DA87B1"/>
<path d="M107.001 64.0371V59.2223V0.963013H119.442C124.028 0.963013 127.781 1.42443 130.722 2.3573C133.663 3.29017 136.159 4.94527 138.2 7.31255C140.241 9.68986 141.712 12.9098 142.611 16.9923C143.511 21.0749 143.956 26.2408 143.956 32.5C143.956 38.7593 143.463 43.9553 142.466 48.098C141.48 52.2408 139.893 55.4607 137.726 57.7778C135.559 60.0849 133.024 61.7099 130.113 62.6428C127.201 63.5757 123.583 64.0371 119.249 64.0371H107.001ZM130.354 57.1058C132.986 55.6914 134.998 53.0433 136.391 49.1613C137.784 45.2794 138.481 39.7223 138.481 32.5C138.481 25.2778 137.794 19.7308 136.439 15.8388C135.075 11.9568 133.092 9.30869 130.499 7.89434C127.897 6.47999 124.211 5.77783 119.452 5.77783H112.109V59.2223H119.258C124.028 59.2223 127.723 58.5201 130.354 57.1058Z" fill="#DA87B1"/>
<path d="M107.001 64.0371V59.2223H14.5011V64.0371H107.001Z" fill="#DA87B1"/>
<path d="M147.499 60.3778V55.8381H157.286V5.44764H147.499V0.907959H171.657V5.44764H162.04V55.8381H171.657V60.3778H147.499V60.3778Z" fill="#DA87B1"/>
<path d="M188.282 60.3778V0.907959H217.817V5.35306H193.045V27.8718H215.471V32.3169H193.045V55.9232H218.07V60.3683H188.282V60.3778Z" fill="#DA87B1"/>
<path d="M232.62 54.0222C229.391 49.1799 227.767 41.3868 227.767 30.6429C227.767 19.8989 229.355 12.1058 232.53 7.26349C235.715 2.42116 240.884 0 248.037 0C252.71 0 257.618 0.964682 262.759 2.9035L261.551 7.53776C256.3 5.66514 251.79 4.71938 248.037 4.71938C242.607 4.71938 238.728 6.73386 236.391 10.7534C234.055 14.7823 232.882 21.346 232.882 30.4537C232.882 39.5614 234.091 46.1913 236.517 50.3337C238.944 54.4762 242.607 56.5569 247.514 56.5569C250.455 56.5569 254.009 55.8286 258.168 54.3816V36.2229H248.38V31.7778H262.931V57.9282C256.986 60.1697 251.844 61.2857 247.514 61.2857C240.82 61.2857 235.859 58.8645 232.62 54.0222Z" fill="#DA87B1"/>
<path d="M271.248 30.0565C271.248 25.3371 271.537 21.2514 272.114 17.7993C272.691 14.3473 273.612 11.2357 274.883 8.4457C277.482 2.81839 282.335 0 289.434 0C297.517 0.056746 302.83 4.02897 305.365 11.8978C306.863 16.4374 307.621 21.781 307.621 27.919C307.621 34.0665 307.332 38.9467 306.755 42.5784C306.177 46.2102 305.248 49.4825 303.985 52.386C301.333 58.316 296.48 61.2857 289.434 61.2857C282.506 61.2857 277.689 58.3255 274.974 52.386C272.493 47.0046 271.248 39.552 271.248 30.0565ZM302.515 30.7753C302.515 27.5029 302.443 24.8737 302.298 22.8781C302.154 20.8825 301.82 18.6694 301.306 16.2483C300.783 13.8271 300.079 11.8315 299.186 10.2521C298.293 8.68214 297.021 7.35807 295.379 6.29881C293.737 5.23955 291.753 4.70992 289.443 4.70992C287.134 4.70992 285.158 5.23955 283.508 6.29881C281.866 7.35807 280.594 8.67268 279.701 10.2521C278.808 11.8315 278.095 13.8271 277.581 16.2483C276.769 20.003 276.372 24.1643 276.372 28.7324C276.372 33.3005 276.534 36.9984 276.85 39.8073C277.166 42.6257 277.761 45.3874 278.627 48.1112C280.413 53.7385 284.022 56.5569 289.452 56.5569C294.991 56.5569 298.636 53.7101 300.368 48.0261C301.847 43.1837 302.569 37.4335 302.515 30.7753Z" fill="#DA87B1"/>
<path d="M377.597 35.9581C374.475 36.1378 372.455 36.2324 371.534 36.2324H364.435V60.3873H359.672V0.907959H372.4C379.446 0.907959 384.615 2.17529 387.899 4.7194C391.191 7.26351 392.833 11.737 392.833 18.1588C392.833 22.4525 392.012 25.9046 390.361 28.5054C388.719 31.1063 386.076 33.2248 382.441 34.861C386.365 42.673 389.946 51.1755 393.176 60.3778H387.98C384.813 51.5443 381.349 43.4013 377.597 35.9581ZM372.229 5.44764H364.435V31.6832H371.363C376.676 31.6832 380.745 30.6713 383.577 28.6379C386.41 26.6139 387.817 23.1146 387.817 18.1493C387.817 13.184 386.563 9.82654 384.047 8.06742C381.539 6.3272 377.597 5.44764 372.229 5.44764Z" fill="#DA87B1"/>
<path d="M404.786 60.3778V0.907959H434.32V5.35306H409.549V27.8718H431.975V32.3169H409.549V55.9232H434.573V60.3683H404.786V60.3778Z" fill="#DA87B1"/>
<path d="M464.892 34.6813V60.3778H460.22V34.6813L443.495 0.907959H449.214L462.466 29.508H462.637L475.889 0.907959H481.608L464.892 34.6813Z" fill="#DA87B1"/>
<path d="M491.387 60.3778V0.907959H520.922V5.35306H496.15V27.8718H518.576V32.3169H496.15V55.9232H521.175V60.3683H491.387V60.3778Z" fill="#DA87B1"/>
<path d="M547.2 31.8251C542.031 30.5199 538.251 28.6189 535.852 26.1032C533.452 23.5969 532.261 19.9462 532.261 15.1606C532.261 10.3751 533.831 6.6582 536.979 3.99114C540.128 1.33353 544.187 0 549.149 0C554.11 0 559.162 0.936309 564.304 2.81839L563.095 7.45264C558.305 5.63677 553.903 4.72884 549.888 4.72884C545.874 4.72884 542.798 5.61786 540.669 7.40536C538.531 9.19286 537.466 11.7748 537.466 15.1701C537.466 18.556 538.332 21.1284 540.064 22.8876C541.796 24.6467 545.242 26.2356 550.411 27.6542C555.58 29.0729 559.315 30.955 561.625 33.2815C563.934 35.6081 565.089 39.3628 565.089 44.5362C565.089 49.7095 563.429 53.7952 560.109 56.7933C556.789 59.7914 552.504 61.2857 547.245 61.2857C543.321 61.2857 538.35 60.4061 532.351 58.6565L533.479 54.0222C539.37 55.7151 544.097 56.5663 547.678 56.5663C551.259 56.5663 554.2 55.526 556.51 53.4358C558.819 51.3457 559.974 48.4327 559.974 44.678C559.974 40.9233 559.135 38.1712 557.466 36.412C555.788 34.6529 552.369 33.1208 547.2 31.8251Z" fill="#DA87B1"/>
<path d="M564.304 2.81839L563.095 7.45264H663V2.81839H564.304Z" fill="#DA87B1"/>
</svg>
