<svg width="667" height="70" viewBox="0 0 667 70" fill="none" xmlns="http://www.w3.org/2000/svg">
<path fill-rule="evenodd" clip-rule="evenodd" d="M666.05 6.00853C666.98 10.8085 663.33 15.0085 658.7 15.0085C655.82 15.0085 653.32 13.3885 652.06 11.0085H181.51H179.94C174.53 21.5385 169.62 30.0885 165.23 36.6585C167.15 39.5385 169.58 43.6685 172.53 49.0385L183.08 69.0085H174.66C167.87 54.9685 162.84 45.1885 159.57 39.6685L150.39 40.6285V69.0085H145.39V6.00853H151.39V35.6685L160.7 34.7085C165.25 27.7985 169.76 19.8585 174.24 10.8985L176.74 5.99853H179.39H181.89H651.35C652.13 2.17853 655.81 -0.591468 660 0.108532C663.01 0.618532 665.47 3.00853 666.05 6.00853ZM0 6.00853L7.02 69.0085H16.54L23.72 42.0085H24.01L30.9 69.0085H40.61L47.63 6.00853H42.15L35.73 64.0085H34.45L26.48 34.0085H21.45L13.1 64.0085H11.92L5.48 6.00853H0ZM50.98 23.8185C50.34 27.4685 50.02 31.7885 50.02 36.7785C50.02 46.8285 51.4 54.6985 54.15 60.3985C57.16 66.6685 62.5 69.8085 70.18 69.8085C77.99 69.8085 83.36 66.6685 86.31 60.3985C87.72 57.3285 88.74 53.8685 89.38 50.0285C90.02 46.1885 90.34 41.0385 90.34 34.5685C90.34 28.0385 89.51 22.3785 87.84 17.5785C85.02 9.25853 79.14 5.06853 70.18 4.99853C62.31 4.99853 56.93 7.97853 54.05 13.9285C52.65 16.8685 51.62 20.1685 50.98 23.8185ZM84.39 29.1885C84.58 31.2985 84.68 34.0885 84.68 37.5385C84.74 44.5785 83.94 50.6585 82.28 55.7785C80.36 61.7985 76.33 64.7985 70.18 64.7985C64.16 64.7985 60.16 61.8185 58.18 55.8685C57.22 52.9885 56.55 50.0785 56.16 47.1285C55.84 44.1185 55.68 40.2185 55.68 35.4185C55.68 30.5585 56.13 26.1385 57.02 22.1685C57.6 19.6085 58.36 17.4985 59.32 15.8285C60.34 14.1685 61.75 12.7885 63.54 11.6985C65.4 10.5485 67.6 9.96853 70.16 9.96853C72.72 9.96853 74.9 10.5485 76.69 11.6985C78.55 12.7885 79.95 14.1585 80.91 15.8285C81.93 17.4885 82.73 19.6085 83.31 22.1685C83.91 24.7385 84.26 27.0785 84.39 29.1885ZM110.84 43.0085C111.81 43.0085 113.93 42.9085 117.2 42.7185C121.14 50.7385 124.78 59.4985 128.11 69.0085H135.61C132.02 59.2585 128.04 50.2485 123.68 41.9785C127.72 40.2485 130.64 37.9985 132.43 35.2485C134.29 32.4885 135.22 28.8385 135.22 24.2885C135.22 17.4885 133.39 12.7485 129.74 10.0485C126.09 7.35853 120.35 6.00853 112.53 6.00853H98.39V69.0085H103.39V43.0085H110.84ZM103.39 11.0085H112.11C118.12 11.0085 122.51 11.9485 125.29 13.8185C128.13 15.6885 129.55 19.2785 129.55 24.5685C129.55 29.8585 127.97 33.6085 124.8 35.8085C121.64 37.9385 117.08 39.0085 111.14 39.0085H103.39V11.0085Z" fill="#DA87B1"/>
</svg>
