<svg width="280" height="29" viewBox="0 0 280 29" fill="none" xmlns="http://www.w3.org/2000/svg">
<path fill-rule="evenodd" clip-rule="evenodd" d="M279.939 2.49608C280.33 4.4901 278.796 6.23487 276.85 6.23487C275.639 6.23487 274.588 5.56189 274.059 4.57319H76.2881H75.6282C73.3544 8.94758 71.2908 12.4994 69.4457 15.2288C70.2526 16.4252 71.274 18.1409 72.5138 20.3717L76.948 28.6677H73.4091C70.5553 22.8351 68.4412 18.7723 67.0668 16.4792L63.2085 16.878V28.6677H61.107V2.49608H63.6288V14.8175L67.5417 14.4187C69.4541 11.5481 71.3496 8.24967 73.2325 4.52749L74.2833 2.49192H75.3971H76.4478H273.76C274.088 0.90501 275.635 -0.245709 277.396 0.0450866C278.661 0.256952 279.695 1.24981 279.939 2.49608ZM0 2.49608L2.95048 28.6677H6.95171L9.96944 17.4513H10.0913L12.9872 28.6677H17.0683L20.0187 2.49608H17.7155L15.0172 26.5906H14.4792L11.1295 14.1279H9.01537L5.50589 26.5906H5.00994L2.30323 2.49608H0ZM21.4267 9.89474C21.1577 11.411 21.0233 13.2057 21.0233 15.2786C21.0233 19.4536 21.6033 22.723 22.7591 25.0909C24.0242 27.6956 26.2686 29 29.4964 29C32.779 29 35.036 27.6956 36.2758 25.0909C36.8684 23.8155 37.2972 22.3782 37.5661 20.783C37.8351 19.1877 37.9696 17.0483 37.9696 14.3605C37.9696 11.6478 37.6208 9.29653 36.9189 7.30251C35.7336 3.8462 33.2623 2.10558 29.4964 2.0765C26.1887 2.0765 23.9275 3.31446 22.7171 5.78622C22.1286 7.00756 21.6957 8.37845 21.4267 9.89474ZM35.4689 12.1256C35.5487 13.0021 35.5907 14.1611 35.5907 15.5943C35.616 18.5189 35.2797 21.0447 34.582 23.1716C33.7751 25.6725 32.0813 26.9187 29.4964 26.9187C26.9663 26.9187 25.2851 25.6808 24.4529 23.209C24.0494 22.0126 23.7678 20.8037 23.6039 19.5782C23.4694 18.3278 23.4021 16.7077 23.4021 14.7136C23.4021 12.6947 23.5913 10.8585 23.9653 9.2093C24.2091 8.14582 24.5285 7.26928 24.932 6.57552C25.3607 5.88592 25.9533 5.31264 26.7057 4.85983C27.4874 4.38209 28.4121 4.14115 29.488 4.14115C30.564 4.14115 31.4802 4.38209 32.2326 4.85983C33.0143 5.31264 33.6027 5.88177 34.0062 6.57552C34.4349 7.26512 34.7712 8.14582 35.0149 9.2093C35.2671 10.2769 35.4142 11.249 35.4689 12.1256ZM46.5857 17.8667C46.9934 17.8667 47.8844 17.8251 49.2588 17.7462C50.9148 21.0779 52.4447 24.717 53.8442 28.6677H56.9965C55.4876 24.6173 53.8148 20.8743 51.9823 17.4388C53.6803 16.7201 54.9076 15.7854 55.6599 14.643C56.4417 13.4965 56.8326 11.9802 56.8326 10.09C56.8326 7.26512 56.0634 5.29602 54.5293 4.17438C52.9952 3.0569 50.5827 2.49608 47.296 2.49608H41.353V28.6677H43.4545V17.8667H46.5857ZM43.4545 4.57319H47.1195C49.6455 4.57319 51.4906 4.96368 52.659 5.74052C53.8527 6.51736 54.4495 8.00873 54.4495 10.2063C54.4495 12.4039 53.7854 13.9617 52.4531 14.8757C51.1249 15.7605 49.2084 16.205 46.7118 16.205H43.4545V4.57319Z" fill="#DA87B1"/>
</svg>
