<svg width="665" height="70" viewBox="0 0 665 70" fill="none" xmlns="http://www.w3.org/2000/svg">
<path fill-rule="evenodd" clip-rule="evenodd" d="M197.516 35.7C191.816 34.29 187.626 32.28 184.936 29.65C182.316 26.96 180.996 23.09 180.996 18.03C180.996 12.97 182.726 9.04 186.176 6.22C189.706 3.41 194.226 2 199.726 2C205.226 2 210.826 2.99 216.526 4.98L215.186 9.88C209.876 7.96 204.976 7 200.496 7C196.076 7 192.686 7.96 190.316 9.88C187.946 11.74 186.766 14.46 186.766 18.04C186.766 21.62 187.726 24.34 189.646 26.2C191.566 28.06 195.376 29.75 201.066 31.29C206.826 32.76 210.986 34.75 213.546 37.24C216.106 39.67 217.386 43.64 217.386 49.14C217.386 54.58 215.526 58.9 211.816 62.1C208.166 65.24 203.436 66.8 197.606 66.8C193.646 66.8 188.746 66.03 182.886 64.5H14.7355C13.4555 67.42 10.0055 69.38 6.52553 68.94C3.14553 68.52 0.41553 65.74 0.0455298 62.36C-0.44447 57.83 3.08553 54 7.50553 54C10.9555 54 13.8655 55.95 14.7355 59.12H182.346C188.876 60.91 194.126 61.81 198.086 61.81C202.056 61.81 205.316 60.72 207.876 58.55C210.436 56.31 211.716 53.21 211.716 49.24C211.716 45.27 210.786 42.36 208.936 40.5C207.086 38.64 203.276 37.04 197.516 35.7ZM258.496 3.5H264.226C258.166 16.32 252.746 26.52 247.956 34.09C249.776 36.98 252.076 41.11 254.866 46.5L264.866 66.51H258.776C251.986 52.47 246.956 42.69 243.686 37.17L234.506 38.13V66.5H229.506V3.5H234.506V33.22L243.326 32.26C247.626 25.33 251.906 17.38 256.146 8.41L258.496 3.5ZM279.496 66.5V61.5H290.496V8.5H279.496V3.5H306.496V8.5H295.496V61.5H306.496V66.5H279.496ZM354.496 61.5V66.5H323.496V3.5H328.496V61.5H354.496ZM401.496 61.5V66.5H370.496V3.5H375.496V61.5H401.496Z" fill="#DA87B1"/>
<path d="M447.006 4.5C441.796 2.83 436.605 2 431.565 2C426.065 2 421.546 3.41 418.026 6.22C414.566 9.04 412.846 12.97 412.846 18.03C412.846 23.09 414.156 26.96 416.786 29.65C419.476 32.27 423.665 34.29 429.365 35.7C435.125 37.04 438.936 38.64 440.786 40.5C442.646 42.36 443.565 45.27 443.565 49.24C443.565 53.21 442.285 56.31 439.725 58.55C437.165 60.73 433.905 61.81 429.935 61.81C425.965 61.81 420.715 60.91 414.195 59.12L412.945 64.02C419.605 65.88 425.106 66.8 429.456 66.8C435.276 66.8 440.015 65.23 443.665 62.1C447.375 58.9 449.235 54.58 449.235 49.14C449.235 43.64 447.956 39.67 445.396 37.24C442.836 34.74 438.675 32.76 432.915 31.29C427.215 29.75 423.415 28.06 421.495 26.2C419.575 24.34 418.615 21.62 418.615 18.04C418.615 14.46 419.795 11.74 422.165 9.88C424.535 7.96 427.926 7 432.346 7C436.826 7 441.726 7.96 447.036 9.88L447.006 4.5Z" fill="#DA87B1"/>
<path d="M447.006 4.5L447.036 9.88H650.006V4.5H447.006Z" fill="#DA87B1"/>
<path d="M664.006 7.5C664.006 11.6421 660.648 15 656.506 15C652.363 15 649.006 11.6421 649.006 7.5C649.006 3.35786 652.363 0 656.506 0C660.648 0 664.006 3.35786 664.006 7.5Z" fill="#DA87B1"/>
</svg>
