<svg width="280" height="29" viewBox="0 0 280 29" fill="none" xmlns="http://www.w3.org/2000/svg">
<path fill-rule="evenodd" clip-rule="evenodd" d="M90.289 15.004C87.8854 14.4114 86.1185 13.5666 84.9842 12.4613C83.8794 11.3307 83.3228 9.70426 83.3228 7.57764C83.3228 5.45103 84.0523 3.79933 85.5071 2.61414C86.9956 1.43315 88.9016 0.840559 91.2209 0.840559C93.5402 0.840559 95.9016 1.25664 98.3052 2.09299L97.7401 4.15236C95.501 3.34543 93.4347 2.94196 91.5456 2.94196C89.6818 2.94196 88.2523 3.34543 87.2529 4.15236C86.2535 4.93408 85.7559 6.07724 85.7559 7.58185C85.7559 9.08645 86.1607 10.2296 86.9703 11.0113C87.78 11.793 89.3866 12.5033 91.786 13.1506C94.2149 13.7684 95.9691 14.6047 97.0486 15.6512C98.1281 16.6725 98.6678 18.341 98.6678 20.6525C98.6678 22.9389 97.8835 24.7545 96.3191 26.0994C94.7799 27.419 92.7853 28.0747 90.3269 28.0747C88.6571 28.0747 86.5908 27.7511 84.1198 27.108H6.21373C5.67397 28.3353 4.21916 29.159 2.75171 28.9741C1.32642 28.7976 0.175222 27.6292 0.0191992 26.2086C-0.187426 24.3048 1.30112 22.6951 3.16496 22.6951C4.61976 22.6951 5.84686 23.5146 6.21373 24.8469H83.892C86.6456 25.5992 88.8595 25.9775 90.5293 25.9775C92.2034 25.9775 93.5781 25.5194 94.6576 24.6074C95.7371 23.6659 96.2769 22.3631 96.2769 20.6946C96.2769 19.0261 95.8847 17.803 95.1046 17.0213C94.3245 16.2396 92.7179 15.5672 90.289 15.004ZM116.003 1.47098H118.419C115.864 6.85896 113.579 11.1458 111.559 14.3273C112.326 15.5419 113.296 17.2777 114.473 19.543L118.689 27.9528H116.121C113.258 22.0521 111.137 17.9417 109.758 15.6218L105.887 16.0253V27.9486H103.779V1.47098H105.887V13.9617L109.606 13.5582C111.42 10.6457 113.224 7.30446 115.012 3.53455L116.003 1.47098ZM124.859 27.9486V25.8472H129.497V3.57238H124.859V1.47098H136.244V3.57238H131.605V25.8472H136.244V27.9486H124.859ZM156.485 25.8472V27.9486H143.413V1.47098H145.521V25.8472H156.485ZM176.304 25.8472V27.9486H163.232V1.47098H165.34V25.8472H176.304Z" fill="#DA87B1"/>
<path d="M195.495 1.89126C193.298 1.18939 191.109 0.840559 188.984 0.840559C186.665 0.840559 184.759 1.43315 183.274 2.61414C181.815 3.79933 181.09 5.45103 181.09 7.57764C181.09 9.70426 181.642 11.3307 182.751 12.4613C183.886 13.5624 185.653 14.4114 188.056 15.004C190.485 15.5672 192.092 16.2396 192.872 17.0213C193.656 17.803 194.044 19.0261 194.044 20.6946C194.044 22.3631 193.504 23.6659 192.425 24.6074C191.345 25.5236 189.971 25.9775 188.297 25.9775C186.623 25.9775 184.409 25.5992 181.659 24.8469L181.132 26.9063C183.941 27.688 186.26 28.0747 188.094 28.0747C190.548 28.0747 192.547 27.4148 194.086 26.0994C195.651 24.7545 196.435 22.9389 196.435 20.6525C196.435 18.341 195.895 16.6725 194.816 15.6512C193.736 14.6005 191.982 13.7684 189.553 13.1506C187.15 12.5033 185.547 11.793 184.738 11.0113C183.928 10.2296 183.523 9.08645 183.523 7.58185C183.523 6.07724 184.021 4.93408 185.02 4.15236C186.019 3.34543 187.449 2.94196 189.313 2.94196C191.202 2.94196 193.268 3.34543 195.507 4.15236L195.495 1.89126Z" fill="#DA87B1"/>
<path d="M195.495 1.89126L195.507 4.15236H274.096V1.89126H195.495Z" fill="#DA87B1"/>
<path d="M280 3.1521C280 4.89295 278.584 6.3042 276.837 6.3042C275.091 6.3042 273.675 4.89295 273.675 3.1521C273.675 1.41124 275.091 0 276.837 0C278.584 0 280 1.41124 280 3.1521Z" fill="#DA87B1"/>
</svg>
