<svg width="143" height="31" viewBox="0 0 143 31" fill="none" xmlns="http://www.w3.org/2000/svg">
<path fill-rule="evenodd" clip-rule="evenodd" d="M58.768 0.39092L51.2877 25.9962H53.5955L55.2666 20.0933H65.8105L67.4418 25.9962H69.7893L62.5877 0.39092H58.768ZM60.9961 2.34552L65.2933 18.1387H55.8236L60.3197 2.34552H60.9961ZM80.8107 25.9962V14.9332L88.4899 0.39092H85.8639L79.7762 12.7049H79.6967L73.609 0.39092H70.983L78.6622 14.9332V25.9962H80.8107ZM89.0469 29.319V31H108.941V29.319H89.0469ZM110.413 0.39092V25.9962H112.602V14.2686H123.822V25.9962H126.01V0.39092H123.822V12.2749H112.602V0.39092H110.413ZM131.899 24.0416V25.9962H143V24.0416H138.583V2.34552H143V0.39092H131.899V2.34552H136.395V24.0416H131.899Z" fill="#DA87B1"/>
<path d="M35.1734 11.2585C36.2875 12.327 38.0249 13.148 40.3857 13.7213C42.773 14.2686 44.3513 14.9201 45.1205 15.6759C45.8898 16.4317 46.2744 17.6175 46.2744 19.2333C46.2744 20.8491 45.7439 22.1131 44.6829 23.0252C43.6218 23.9113 42.269 24.3544 40.6245 24.3544C39.105 24.3544 37.1326 24.0429 34.7076 23.42V23.4145H34.7039H34.6989H34.6922H34.686C34.4933 23.3649 34.2977 23.3133 34.0992 23.2598V25.4506C36.5275 26.0749 38.7859 26.3871 40.4255 26.3871C42.8393 26.3871 44.8022 25.7486 46.3142 24.4716C47.8527 23.1686 48.6219 21.4094 48.6219 19.1942C48.6219 16.9529 48.0914 15.3371 47.0304 14.3468C45.9694 13.3304 44.2452 12.5225 41.8579 11.9231C39.4971 11.2976 37.9188 10.607 37.1231 9.8512C36.3273 9.09542 35.9294 7.98781 35.9294 6.52837C35.9294 5.06894 36.4201 3.96133 37.4016 3.20555C38.383 2.42371 39.7889 2.03279 41.6192 2.03279C43.476 2.03279 45.5052 2.42371 47.7068 3.20555L48.2638 1.21185C45.903 0.403952 43.5821 0 41.3009 0C39.0197 0 37.1496 0.57335 35.6907 1.72005C34.2583 2.86675 33.5421 4.46952 33.5421 6.52837C33.5421 8.58722 34.0859 10.1639 35.1734 11.2585Z" fill="#DA87B1"/>
<path d="M34.0992 25.4506V23.2598H0V25.4506H34.0992Z" fill="#DA87B1"/>
</svg>
