<svg width="497" height="77" viewBox="0 0 497 77" fill="none" xmlns="http://www.w3.org/2000/svg">
<path fill-rule="evenodd" clip-rule="evenodd" d="M293.052 0.959999L275.004 63.84H280.572L284.604 49.344H310.044L313.98 63.84H319.644L302.268 0.959999H293.052ZM298.428 5.76L308.796 44.544H285.948L296.796 5.76H298.428ZM346.236 63.84V36.672L364.764 0.959999H358.428L343.74 31.2H343.548L328.86 0.959999H322.524L341.052 36.672V63.84H346.236ZM366.108 72V76.128H414.108V72H366.108ZM417.66 0.959999V63.84H422.94V35.04H450.012V63.84H455.292V0.959999H450.012V30.144H422.94V0.959999H417.66ZM469.5 59.04V63.84H496.284V59.04H485.628V5.76H496.284V0.959999H469.5V5.76H480.348V59.04H469.5Z" fill="#DA87B1"/>
<path d="M236.124 27.648C238.812 30.272 243.004 32.288 248.7 33.696C254.46 35.04 258.268 36.64 260.124 38.496C261.98 40.352 262.908 43.264 262.908 47.232C262.908 51.2 261.628 54.304 259.068 56.544C256.508 58.72 253.244 59.808 249.276 59.808C245.61 59.808 240.851 59.0432 235 57.5136V57.5H234.991H234.979H234.963H234.948C234.483 57.3781 234.011 57.2515 233.532 57.12V62.5C239.391 64.0333 244.84 64.8 248.796 64.8C254.62 64.8 259.356 63.232 263.004 60.096C266.716 56.896 268.572 52.576 268.572 47.136C268.572 41.632 267.292 37.664 264.732 35.232C262.172 32.736 258.012 30.752 252.252 29.28C246.556 27.744 242.748 26.048 240.828 24.192C238.908 22.336 237.948 19.616 237.948 16.032C237.948 12.448 239.132 9.728 241.5 7.872C243.868 5.952 247.26 4.992 251.676 4.992C256.156 4.992 261.052 5.952 266.364 7.872L267.708 2.976C262.012 0.992001 256.412 0 250.908 0C245.404 0 240.892 1.408 237.372 4.224C233.916 7.04 232.188 10.976 232.188 16.032C232.188 21.088 233.5 24.96 236.124 27.648Z" fill="#DA87B1"/>
<path d="M233.532 62.5V57.12H0V62.5H233.532Z" fill="#DA87B1"/>
</svg>
