<svg width="667" height="70" viewBox="0 0 667 70" fill="none" xmlns="http://www.w3.org/2000/svg">
<path fill-rule="evenodd" clip-rule="evenodd" d="M666.05 6.00853C666.98 10.8085 663.33 15.0085 658.7 15.0085C655.82 15.0085 653.32 13.3885 652.06 11.0085H179.94C174.53 21.5385 169.62 30.0885 165.23 36.6585C167.15 39.5385 169.58 43.6685 172.53 49.0385L183.08 69.0085H174.66C167.87 54.9685 162.84 45.1885 159.57 39.6685L150.39 40.6285V69.0085H145.39V6.00853H151.39V35.6685L160.7 34.7085C165.25 27.7985 169.76 19.8585 174.24 10.8985L176.74 5.99853H651.35C652.13 2.17853 655.81 -0.591468 660 0.108532C663.01 0.618532 665.47 3.00853 666.05 6.00853ZM0 6.00853L7.02 69.0085H16.54L23.72 42.0085H24.01L30.9 69.0085H40.61L47.63 6.00853H42.15L35.73 64.0085H34.45L26.48 34.0085H21.45L13.1 64.0085H11.92L5.48 6.00853H0ZM50.98 23.8185C50.34 27.4685 50.02 31.7885 50.02 36.7785C50.02 46.8285 51.4 54.6985 54.15 60.3985C57.16 66.6685 62.5 69.8085 70.18 69.8085C77.99 69.8085 83.36 66.6685 86.31 60.3985C87.72 57.3285 88.74 53.8685 89.38 50.0285C90.02 46.1885 90.34 41.0385 90.34 34.5685C90.34 28.0385 89.51 22.3785 87.84 17.5785C85.02 9.25853 79.14 5.06853 70.18 4.99853C62.31 4.99853 56.93 7.97853 54.05 13.9285C52.65 16.8685 51.62 20.1685 50.98 23.8185ZM84.39 29.1885C84.58 31.2985 84.68 34.0885 84.68 37.5385C84.74 44.5785 83.94 50.6585 82.28 55.7785C80.36 61.7985 76.33 64.7985 70.18 64.7985C64.16 64.7985 60.16 61.8185 58.18 55.8685C57.22 52.9885 56.55 50.0785 56.16 47.1285C55.84 44.1185 55.68 40.2185 55.68 35.4185C55.68 30.5585 56.13 26.1385 57.02 22.1685C57.6 19.6085 58.36 17.4985 59.32 15.8285C60.34 14.1685 61.75 12.7885 63.54 11.6985C65.4 10.5485 67.6 9.96853 70.16 9.96853C72.72 9.96853 74.9 10.5485 76.69 11.6985C78.55 12.7885 79.95 14.1585 80.91 15.8285C81.93 17.4885 82.73 19.6085 83.31 22.1685C83.91 24.7385 84.26 27.0785 84.39 29.1885ZM110.84 43.0085C111.81 43.0085 113.93 42.9085 117.2 42.7185C121.14 50.7385 124.78 59.4985 128.11 69.0085H135.61C132.02 59.2585 128.04 50.2485 123.68 41.9785C127.72 40.2485 130.64 37.9985 132.43 35.2485C134.29 32.4885 135.22 28.8385 135.22 24.2885C135.22 17.4885 133.39 12.7485 129.74 10.0485C126.09 7.35853 120.35 6.00853 112.53 6.00853H98.39V69.0085H103.39V43.0085H110.84ZM103.39 11.0085H112.11C118.12 11.0085 122.51 11.9485 125.29 13.8185C128.13 15.6885 129.55 19.2785 129.55 24.5685C129.55 29.8585 127.97 33.6085 124.8 35.8085C121.64 37.9385 117.08 39.0085 111.14 39.0085H103.39V11.0085Z" fill="#DA87B1"/>
<path d="M199.968 51.104L200.624 51.536C199.824 52.5813 199.173 53.6586 198.672 54.768C198.16 55.888 197.813 57.216 197.632 58.752C197.451 60.288 197.483 61.6106 197.728 62.72C197.984 63.8293 198.389 64.9066 198.944 65.952L198.176 66.4C197.568 65.2586 197.136 64.096 196.88 62.912C196.603 61.7386 196.56 60.352 196.752 58.752C196.944 57.152 197.312 55.76 197.856 54.576C198.4 53.392 199.104 52.2346 199.968 51.104Z" fill="#FFFAFC"/>
<path d="M206.976 53.264L205.52 56.576L204.544 56.304L206.32 53.088L206.976 53.264Z" fill="#FFFAFC"/>
<path d="M210.64 63.504L210.864 62.64C211.824 62.992 212.587 63.168 213.152 63.168C213.717 63.168 214.171 63.0293 214.512 62.752C214.853 62.4746 215.024 62.0746 215.024 61.552C215.024 61.2426 214.912 60.9973 214.688 60.816C214.464 60.6346 214.021 60.4586 213.36 60.288C212.699 60.1173 212.192 59.8826 211.84 59.584C211.488 59.2853 211.312 58.9013 211.312 58.432C211.312 57.696 211.557 57.1253 212.048 56.72C212.539 56.3146 213.179 56.112 213.968 56.112C214.757 56.112 215.525 56.2613 216.272 56.56L216.048 57.376C215.259 57.0986 214.587 56.96 214.032 56.96C213.477 56.96 213.024 57.0826 212.672 57.328C212.331 57.5733 212.16 57.8666 212.16 58.208C212.16 58.5493 212.283 58.816 212.528 59.008C212.784 59.1786 213.253 59.36 213.936 59.552C214.619 59.744 215.109 59.984 215.408 60.272C215.717 60.56 215.872 61.0133 215.872 61.632C215.872 62.2506 215.621 62.8 215.12 63.28C214.629 63.7493 213.984 63.984 213.184 63.984C212.384 63.984 211.536 63.824 210.64 63.504Z" fill="#FFFAFC"/>
<path d="M219.968 56.576C220.427 56.288 220.976 56.144 221.616 56.144C222.267 56.144 222.784 56.3146 223.168 56.656C223.563 56.9973 223.76 57.472 223.76 58.08C223.76 58.688 223.531 59.2213 223.072 59.68C222.613 60.1386 221.957 60.4266 221.104 60.544L219.072 60.816C219.093 61.616 219.232 62.208 219.488 62.592C219.755 62.9653 220.203 63.152 220.832 63.152C221.461 63.152 222.208 62.9973 223.072 62.688L223.216 63.488C222.352 63.8186 221.52 63.984 220.72 63.984C219.931 63.984 219.312 63.7173 218.864 63.184C218.427 62.6506 218.208 61.8986 218.208 60.928C218.208 59.7333 218.443 58.6666 218.912 57.728C219.157 57.2373 219.509 56.8533 219.968 56.576ZM219.12 60.064L220.992 59.792C221.632 59.696 222.112 59.4933 222.432 59.184C222.763 58.864 222.928 58.5013 222.928 58.096C222.928 57.3066 222.453 56.912 221.504 56.912C220.768 56.912 220.203 57.2106 219.808 57.808C219.424 58.4053 219.195 59.1573 219.12 60.064Z" fill="#FFFAFC"/>
<path d="M227.808 61.28L228.992 54H226.928L227.04 53.2H229.952L228.64 61.248C228.501 61.9946 228.464 62.5013 228.528 62.768C228.592 63.0346 228.869 63.168 229.36 63.168C229.851 63.168 230.389 63.0666 230.976 62.864L231.072 63.664C230.443 63.888 229.84 64 229.264 64C228.688 64 228.272 63.904 228.016 63.712C227.76 63.5093 227.637 63.2053 227.648 62.8C227.659 62.3946 227.712 61.888 227.808 61.28Z" fill="#FFFAFC"/>
<path d="M235.424 56.576C235.883 56.288 236.432 56.144 237.072 56.144C237.723 56.144 238.24 56.3146 238.624 56.656C239.019 56.9973 239.216 57.472 239.216 58.08C239.216 58.688 238.987 59.2213 238.528 59.68C238.069 60.1386 237.413 60.4266 236.56 60.544L234.528 60.816C234.549 61.616 234.688 62.208 234.944 62.592C235.211 62.9653 235.659 63.152 236.288 63.152C236.917 63.152 237.664 62.9973 238.528 62.688L238.672 63.488C237.808 63.8186 236.976 63.984 236.176 63.984C235.387 63.984 234.768 63.7173 234.32 63.184C233.883 62.6506 233.664 61.8986 233.664 60.928C233.664 59.7333 233.899 58.6666 234.368 57.728C234.613 57.2373 234.965 56.8533 235.424 56.576ZM234.576 60.064L236.448 59.792C237.088 59.696 237.568 59.4933 237.888 59.184C238.219 58.864 238.384 58.5013 238.384 58.096C238.384 57.3066 237.909 56.912 236.96 56.912C236.224 56.912 235.659 57.2106 235.264 57.808C234.88 58.4053 234.651 59.1573 234.576 60.064Z" fill="#FFFAFC"/>
<path d="M245.904 58.72L246.176 57.136C245.685 57.0186 245.296 56.96 245.008 56.96C243.653 56.96 242.811 57.9893 242.48 60.048C242.331 60.9866 242.411 61.744 242.72 62.32C243.029 62.8853 243.552 63.168 244.288 63.168C244.725 63.168 245.376 63.0133 246.24 62.704L246.368 63.504C245.525 63.824 244.8 63.984 244.192 63.984C243.2 63.984 242.485 63.6373 242.048 62.944C241.611 62.24 241.483 61.2746 241.664 60.048C242.048 57.4453 243.2 56.144 245.12 56.144C245.813 56.144 246.475 56.256 247.104 56.48L246.736 58.72H245.904Z" fill="#FFFAFC"/>
<path d="M250.256 61.28L250.944 57.152H249.472L249.6 56.352H251.072L251.376 54.512L252.24 54.352L251.904 56.352H254.464L254.336 57.152H251.776L251.12 61.248C251.109 61.376 251.088 61.5466 251.056 61.76C251.024 61.9626 251.003 62.1066 250.992 62.192C250.992 62.2666 250.987 62.3733 250.976 62.512C250.965 62.64 250.971 62.7253 250.992 62.768L251.072 62.944C251.147 63.0933 251.413 63.168 251.872 63.168C252.341 63.168 252.864 63.0666 253.44 62.864L253.536 63.664C252.917 63.888 252.315 64 251.728 64C251.152 64 250.736 63.904 250.48 63.712C250.224 63.5093 250.096 63.2053 250.096 62.8C250.107 62.3946 250.16 61.888 250.256 61.28Z" fill="#FFFAFC"/>
<path d="M258.608 56.576C259.067 56.288 259.616 56.144 260.256 56.144C260.907 56.144 261.424 56.3146 261.808 56.656C262.203 56.9973 262.4 57.472 262.4 58.08C262.4 58.688 262.171 59.2213 261.712 59.68C261.253 60.1386 260.597 60.4266 259.744 60.544L257.712 60.816C257.733 61.616 257.872 62.208 258.128 62.592C258.395 62.9653 258.843 63.152 259.472 63.152C260.101 63.152 260.848 62.9973 261.712 62.688L261.856 63.488C260.992 63.8186 260.16 63.984 259.36 63.984C258.571 63.984 257.952 63.7173 257.504 63.184C257.067 62.6506 256.848 61.8986 256.848 60.928C256.848 59.7333 257.083 58.6666 257.552 57.728C257.797 57.2373 258.149 56.8533 258.608 56.576ZM257.76 60.064L259.632 59.792C260.272 59.696 260.752 59.4933 261.072 59.184C261.403 58.864 261.568 58.5013 261.568 58.096C261.568 57.3066 261.093 56.912 260.144 56.912C259.408 56.912 258.843 57.2106 258.448 57.808C258.064 58.4053 257.835 59.1573 257.76 60.064Z" fill="#FFFAFC"/>
<path d="M270.912 53.2L269.392 62.512L269.36 63.904L268.56 64L268.528 63.152C267.685 63.7066 266.992 63.984 266.448 63.984C265.541 63.984 264.88 63.632 264.464 62.928C264.048 62.224 263.909 61.2693 264.048 60.064C264.197 58.848 264.587 57.8933 265.216 57.2C265.856 56.496 266.656 56.144 267.616 56.144C267.893 56.144 268.224 56.192 268.608 56.288C269.003 56.3733 269.307 56.4693 269.52 56.576L270.08 53.2H270.912ZM264.912 60.032C264.805 60.9706 264.896 61.728 265.184 62.304C265.472 62.8693 265.92 63.152 266.528 63.152C267.136 63.152 267.824 62.848 268.592 62.24L269.376 57.44C269.205 57.344 268.917 57.2426 268.512 57.136C268.107 57.0293 267.787 56.976 267.552 56.976C266.837 56.976 266.245 57.2533 265.776 57.808C265.317 58.352 265.029 59.0933 264.912 60.032Z" fill="#FFFAFC"/>
<path d="M274.112 56.288L275.568 52.976L276.544 53.248L274.752 56.464L274.112 56.288Z" fill="#FFFAFC"/>
<path d="M280.64 66.336L279.984 65.888C280.763 64.8746 281.403 63.808 281.904 62.688C282.416 61.568 282.768 60.2346 282.96 58.688C283.131 57.1413 283.093 55.8133 282.848 54.704C282.603 53.5946 282.208 52.5173 281.664 51.472L282.416 51.04C283.013 52.1493 283.44 53.3013 283.696 54.496C283.963 55.6906 284 57.088 283.808 58.688C283.616 60.288 283.253 61.6853 282.72 62.88C282.187 64.064 281.493 65.216 280.64 66.336Z" fill="#FFFAFC"/>
</svg>
